<?xml version="1.0" standalone="no"?><!DOCTYPE svg PUBLIC "-//W3C//DTD SVG 1.1//EN" "http://www.w3.org/Graphics/SVG/1.1/DTD/svg11.dtd"><svg t="1708747584342" class="icon" viewBox="0 0 1024 1024" version="1.1" xmlns="http://www.w3.org/2000/svg" p-id="1105" xmlns:xlink="http://www.w3.org/1999/xlink" width="200" height="200"><path d="M230.59968 559.40096L39.28064 445.72672a30.73024 30.73024 0 0 1-14.8736-29.52704 30.73024 30.73024 0 0 1 20.52096-25.91744l912.77824-315.76576a30.72512 30.72512 0 0 1 40.46848 33.28 30.67392 30.67392 0 0 1-5.8112 20.22912l-252.20608 820.62336a30.71488 30.71488 0 0 1-50.92864 12.85632l-242.23232-238.68928-154.61376 168.54016a30.72 30.72 0 0 1-53.3504-19.93216l-8.43264-312.02304z m59.89888-2.7904l7.90528 237.29664L798.7712 248.45824l-508.27264 308.15232z m439.72096-338.3808L127.55968 426.71104l131.29216 78.00832 471.36768-286.4896z m-241.664 459.28448l207.744 204.70272 199.27552-648.39168-407.01952 443.68896z" fill="#808080" p-id="1106"></path></svg>